<svg width="9" height="9" viewBox="0 0 9 9" fill="none" xmlns="http://www.w3.org/2000/svg">
  <g clip-path="url(#clip0_56_98)">
    <path d="M6.56249 0.7187C6.14022 0.725269 5.72716 0.843145 5.36503 1.06043C5.00289 1.27771 4.7045 1.5867 4.49999 1.9562C4.29548 1.5867 3.99709 1.27771 3.63496 1.06043C3.27282 0.843145 2.85976 0.725269 2.43749 0.7187C1.76434 0.747947 1.13013 1.04242 0.673411 1.53779C0.216689 2.03315 -0.0254145 2.68915 -8.01159e-06 3.36245C-8.01159e-06 5.06758 1.79474 6.92983 3.29999 8.19245C3.63607 8.47487 4.061 8.62971 4.49999 8.62971C4.93898 8.62971 5.36391 8.47487 5.69999 8.19245C7.20524 6.92983 8.99999 5.06758 8.99999 3.36245C9.0254 2.68915 8.78329 2.03315 8.32657 1.53779C7.86985 1.04242 7.23564 0.747947 6.56249 0.7187ZM5.21812 7.6187C5.01711 7.78797 4.76277 7.88079 4.49999 7.88079C4.23721 7.88079 3.98287 7.78797 3.78187 7.6187C1.85512 6.00208 0.749992 4.45108 0.749992 3.36245C0.724357 2.88797 0.887379 2.4226 1.2035 2.06784C1.51963 1.71308 1.9632 1.49771 2.43749 1.4687C2.91178 1.49771 3.35536 1.71308 3.67148 2.06784C3.9876 2.4226 4.15063 2.88797 4.12499 3.36245C4.12499 3.46191 4.1645 3.55729 4.23483 3.62762C4.30515 3.69794 4.40054 3.73745 4.49999 3.73745C4.59945 3.73745 4.69483 3.69794 4.76516 3.62762C4.83548 3.55729 4.87499 3.46191 4.87499 3.36245C4.84936 2.88797 5.01238 2.4226 5.3285 2.06784C5.64463 1.71308 6.0882 1.49771 6.56249 1.4687C7.03678 1.49771 7.48036 1.71308 7.79648 2.06784C8.1126 2.4226 8.27563 2.88797 8.24999 3.36245C8.24999 4.45108 7.14487 6.00208 5.21812 7.6172V7.6187Z" fill="#B2C5FF"/>
  </g>
  <defs>
    <clipPath id="clip0_56_98">
      <rect width="9" height="9" fill="white"/>
    </clipPath>
  </defs>
</svg>
