<svg width="16" height="16" viewBox="0 0 16 16" fill="none" xmlns="http://www.w3.org/2000/svg">
<circle cx="8" cy="8" r="7.75" stroke="url(#paint0_linear_80_275)" stroke-width="0.5"/>
<g clip-path="url(#clip0_80_275)">
<path d="M7.99996 11.3333C8.88371 11.3323 9.73098 10.9808 10.3559 10.3559C10.9808 9.73102 11.3323 8.88375 11.3333 8V6.33333C11.3333 5.44928 10.9821 4.60143 10.357 3.97631C9.73186 3.35119 8.88401 3 7.99996 3C7.1159 3 6.26806 3.35119 5.64294 3.97631C5.01782 4.60143 4.66663 5.44928 4.66663 6.33333V8C4.66762 8.88375 5.01913 9.73102 5.64403 10.3559C6.26894 10.9808 7.11621 11.3323 7.99996 11.3333ZM7.99996 3.83333C8.59019 3.83443 9.16104 4.04411 9.61164 4.42533C10.0622 4.80655 10.3636 5.33477 10.4625 5.91667H9.24996C9.13945 5.91667 9.03347 5.96057 8.95533 6.03871C8.87719 6.11685 8.83329 6.22283 8.83329 6.33333C8.83329 6.44384 8.87719 6.54982 8.95533 6.62796C9.03347 6.7061 9.13945 6.75 9.24996 6.75H10.5V7.58333H9.24996C9.13945 7.58333 9.03347 7.62723 8.95533 7.70537C8.87719 7.78351 8.83329 7.88949 8.83329 8C8.83329 8.11051 8.87719 8.21649 8.95533 8.29463C9.03347 8.37277 9.13945 8.41667 9.24996 8.41667H10.4625C10.3645 8.99895 10.0634 9.5277 9.61261 9.90903C9.16179 10.2904 8.59043 10.4996 7.99996 10.4996C7.40949 10.4996 6.83813 10.2904 6.38731 9.90903C5.93649 9.5277 5.63539 8.99895 5.53746 8.41667H6.74996C6.86047 8.41667 6.96645 8.37277 7.04459 8.29463C7.12273 8.21649 7.16663 8.11051 7.16663 8C7.16663 7.88949 7.12273 7.78351 7.04459 7.70537C6.96645 7.62723 6.86047 7.58333 6.74996 7.58333H5.49996V6.75H6.74996C6.86047 6.75 6.96645 6.7061 7.04459 6.62796C7.12273 6.54982 7.16663 6.44384 7.16663 6.33333C7.16663 6.22283 7.12273 6.11685 7.04459 6.03871C6.96645 5.96057 6.86047 5.91667 6.74996 5.91667H5.53746C5.63632 5.33477 5.93768 4.80655 6.38828 4.42533C6.83888 4.04411 7.40973 3.83443 7.99996 3.83333Z" fill="url(#paint1_linear_80_275)"/>
<path d="M12.5833 8C12.4728 8 12.3668 8.0439 12.2887 8.12204C12.2106 8.20018 12.1667 8.30616 12.1667 8.41667C12.1656 9.41089 11.7701 10.3641 11.0671 11.0671C10.3641 11.7701 9.41089 12.1656 8.41667 12.1667H7.58333C6.58914 12.1655 5.63602 11.77 4.93302 11.067C4.23002 10.364 3.83455 9.41086 3.83333 8.41667C3.83333 8.30616 3.78943 8.20018 3.71129 8.12204C3.63315 8.0439 3.52717 8 3.41667 8C3.30616 8 3.20018 8.0439 3.12204 8.12204C3.0439 8.20018 3 8.30616 3 8.41667C3.00143 9.6318 3.48478 10.7968 4.34401 11.656C5.20324 12.5152 6.3682 12.9986 7.58333 13H8.41667C9.6318 12.9986 10.7968 12.5152 11.656 11.656C12.5152 10.7968 12.9986 9.6318 13 8.41667C13 8.30616 12.9561 8.20018 12.878 8.12204C12.7998 8.0439 12.6938 8 12.5833 8Z" fill="url(#paint2_linear_80_275)"/>
</g>
<defs>
<linearGradient id="paint0_linear_80_275" x1="2.90909" y1="3.64062" x2="16" y2="13.0952" gradientUnits="userSpaceOnUse">
<stop stop-color="#7A91DD"/>
<stop offset="1" stop-color="#FBA580"/>
</linearGradient>
<linearGradient id="paint1_linear_80_275" x1="7.99996" y1="3" x2="7.99996" y2="11.3333" gradientUnits="userSpaceOnUse">
<stop stop-color="#7A91DD"/>
<stop offset="1" stop-color="#FBA580"/>
</linearGradient>
<linearGradient id="paint2_linear_80_275" x1="8" y1="8" x2="8" y2="13" gradientUnits="userSpaceOnUse">
<stop stop-color="#7A91DD"/>
<stop offset="1" stop-color="#FBA580"/>
</linearGradient>
<clipPath id="clip0_80_275">
<rect width="10" height="10" fill="white" transform="translate(3 3)"/>
</clipPath>
</defs>
</svg>
