<svg width="16" height="16" viewBox="0 0 16 16" fill="none" xmlns="http://www.w3.org/2000/svg">
<rect width="16" height="16" fill="white"/>
<circle cx="8" cy="8" r="7.75" fill="url(#paint0_linear_60_394)" stroke="url(#paint1_linear_60_394)" stroke-width="0.5"/>
<g clip-path="url(#clip0_60_394)">
<path d="M7.99984 11.3333C8.88359 11.3323 9.73086 10.9808 10.3558 10.3559C10.9807 9.73102 11.3322 8.88375 11.3332 8V6.33333C11.3332 5.44928 10.982 4.60143 10.3569 3.97631C9.73174 3.35119 8.88389 3 7.99984 3C7.11578 3 6.26794 3.35119 5.64281 3.97631C5.01769 4.60143 4.6665 5.44928 4.6665 6.33333V8C4.6675 8.88375 5.019 9.73102 5.64391 10.3559C6.26882 10.9808 7.11609 11.3323 7.99984 11.3333ZM7.99984 3.83333C8.59007 3.83443 9.16091 4.04411 9.61152 4.42533C10.0621 4.80655 10.3635 5.33477 10.4623 5.91667H9.24984C9.13933 5.91667 9.03335 5.96057 8.95521 6.03871C8.87707 6.11685 8.83317 6.22283 8.83317 6.33333C8.83317 6.44384 8.87707 6.54982 8.95521 6.62796C9.03335 6.7061 9.13933 6.75 9.24984 6.75H10.4998V7.58333H9.24984C9.13933 7.58333 9.03335 7.62723 8.95521 7.70537C8.87707 7.78351 8.83317 7.88949 8.83317 8C8.83317 8.11051 8.87707 8.21649 8.95521 8.29463C9.03335 8.37277 9.13933 8.41667 9.24984 8.41667H10.4623C10.3644 8.99895 10.0633 9.5277 9.61248 9.90903C9.16167 10.2904 8.5903 10.4996 7.99984 10.4996C7.40937 10.4996 6.83801 10.2904 6.38719 9.90903C5.93637 9.5277 5.63527 8.99895 5.53734 8.41667H6.74984C6.86034 8.41667 6.96632 8.37277 7.04446 8.29463C7.12261 8.21649 7.1665 8.11051 7.1665 8C7.1665 7.88949 7.12261 7.78351 7.04446 7.70537C6.96632 7.62723 6.86034 7.58333 6.74984 7.58333H5.49984V6.75H6.74984C6.86034 6.75 6.96632 6.7061 7.04446 6.62796C7.12261 6.54982 7.1665 6.44384 7.1665 6.33333C7.1665 6.22283 7.12261 6.11685 7.04446 6.03871C6.96632 5.96057 6.86034 5.91667 6.74984 5.91667H5.53734C5.6362 5.33477 5.93755 4.80655 6.38816 4.42533C6.83876 4.04411 7.40961 3.83443 7.99984 3.83333Z" fill="white"/>
<path d="M12.5833 8C12.4728 8 12.3668 8.0439 12.2887 8.12204C12.2106 8.20018 12.1667 8.30616 12.1667 8.41667C12.1656 9.41089 11.7701 10.3641 11.0671 11.0671C10.3641 11.7701 9.41089 12.1656 8.41667 12.1667H7.58333C6.58914 12.1655 5.63602 11.77 4.93302 11.067C4.23002 10.364 3.83455 9.41086 3.83333 8.41667C3.83333 8.30616 3.78943 8.20018 3.71129 8.12204C3.63315 8.0439 3.52717 8 3.41667 8C3.30616 8 3.20018 8.0439 3.12204 8.12204C3.0439 8.20018 3 8.30616 3 8.41667C3.00143 9.6318 3.48478 10.7968 4.34401 11.656C5.20324 12.5152 6.3682 12.9986 7.58333 13H8.41667C9.6318 12.9986 10.7968 12.5152 11.656 11.656C12.5152 10.7968 12.9986 9.6318 13 8.41667C13 8.30616 12.9561 8.20018 12.878 8.12204C12.7998 8.0439 12.6938 8 12.5833 8Z" fill="white"/>
</g>
<defs>
<linearGradient id="paint0_linear_60_394" x1="8" y1="0" x2="8" y2="16" gradientUnits="userSpaceOnUse">
<stop stop-color="#7A91DD"/>
<stop offset="1" stop-color="#FBA580"/>
</linearGradient>
<linearGradient id="paint1_linear_60_394" x1="2.90909" y1="3.64062" x2="16" y2="13.0952" gradientUnits="userSpaceOnUse">
<stop stop-color="#7A91DD"/>
<stop offset="1" stop-color="#FBA580"/>
</linearGradient>
<clipPath id="clip0_60_394">
<rect width="10" height="10" fill="white" transform="translate(3 3)"/>
</clipPath>
</defs>
</svg>
