<svg width="10" height="10" viewBox="0 0 10 10" fill="none" xmlns="http://www.w3.org/2000/svg">
  <g clip-path="url(#clip0_58_254)">
    <path d="M4.99996 8.33333C5.88371 8.33234 6.73098 7.98083 7.35589 7.35592C7.98079 6.73102 8.3323 5.88375 8.33329 5V3.33333C8.33329 2.44928 7.9821 1.60143 7.35698 0.976307C6.73186 0.351186 5.88401 -3.33786e-06 4.99996 -3.33786e-06C4.1159 -3.33786e-06 3.26806 0.351186 2.64294 0.976307C2.01782 1.60143 1.66663 2.44928 1.66663 3.33333V5C1.66762 5.88375 2.01913 6.73102 2.64403 7.35592C3.26894 7.98083 4.11621 8.33234 4.99996 8.33333ZM4.99996 0.83333C5.59019 0.834426 6.16104 1.04411 6.61164 1.42533C7.06224 1.80655 7.3636 2.33477 7.46246 2.91666H6.24996C6.13945 2.91666 6.03347 2.96056 5.95533 3.0387C5.87719 3.11684 5.83329 3.22282 5.83329 3.33333C5.83329 3.44384 5.87719 3.54982 5.95533 3.62796C6.03347 3.7061 6.13945 3.75 6.24996 3.75H7.49996V4.58333H6.24996C6.13945 4.58333 6.03347 4.62723 5.95533 4.70537C5.87719 4.78351 5.83329 4.88949 5.83329 5C5.83329 5.1105 5.87719 5.21648 5.95533 5.29462C6.03347 5.37276 6.13945 5.41666 6.24996 5.41666H7.46246C7.36453 5.99895 7.06343 6.5277 6.61261 6.90903C6.16179 7.29036 5.59043 7.4996 4.99996 7.4996C4.40949 7.4996 3.83813 7.29036 3.38731 6.90903C2.93649 6.5277 2.63539 5.99895 2.53746 5.41666H3.74996C3.86047 5.41666 3.96645 5.37276 4.04459 5.29462C4.12273 5.21648 4.16663 5.1105 4.16663 5C4.16663 4.88949 4.12273 4.78351 4.04459 4.70537C3.96645 4.62723 3.86047 4.58333 3.74996 4.58333H2.49996V3.75H3.74996C3.86047 3.75 3.96645 3.7061 4.04459 3.62796C4.12273 3.54982 4.16663 3.44384 4.16663 3.33333C4.16663 3.22282 4.12273 3.11684 4.04459 3.0387C3.96645 2.96056 3.86047 2.91666 3.74996 2.91666H2.53746C2.63632 2.33477 2.93768 1.80655 3.38828 1.42533C3.83888 1.04411 4.40973 0.834426 4.99996 0.83333Z" fill="url(#paint0_linear_58_254)"/>
    <path d="M9.58333 5C9.47283 5 9.36685 5.0439 9.2887 5.12204C9.21056 5.20018 9.16667 5.30616 9.16667 5.41667C9.16556 6.41089 8.77012 7.36408 8.0671 8.0671C7.36408 8.77012 6.41089 9.16556 5.41667 9.16667H4.58333C3.58914 9.16545 2.63602 8.76998 1.93302 8.06698C1.23002 7.36398 0.834546 6.41086 0.833333 5.41667C0.833333 5.30616 0.789435 5.20018 0.711294 5.12204C0.633154 5.0439 0.527174 5 0.416667 5C0.30616 5 0.200179 5.0439 0.122039 5.12204C0.0438987 5.20018 0 5.30616 0 5.41667C0.00143353 6.6318 0.484779 7.79676 1.34401 8.65599C2.20324 9.51522 3.3682 9.99857 4.58333 10H5.41667C6.6318 9.99857 7.79676 9.51522 8.65599 8.65599C9.51522 7.79676 9.99857 6.6318 10 5.41667C10 5.30616 9.9561 5.20018 9.87796 5.12204C9.79982 5.0439 9.69384 5 9.58333 5Z" fill="url(#paint1_linear_58_254)"/>
  </g>
  <defs>
    <linearGradient id="paint0_linear_58_254" x1="4.99996" y1="-3.33786e-06" x2="4.99996" y2="8.33333" gradientUnits="userSpaceOnUse">
      <stop stop-color="#7A91DD"/>
      <stop offset="1" stop-color="#FBA580"/>
    </linearGradient>
    <linearGradient id="paint1_linear_58_254" x1="5" y1="5" x2="5" y2="10" gradientUnits="userSpaceOnUse">
      <stop stop-color="#7A91DD"/>
      <stop offset="1" stop-color="#FBA580"/>
    </linearGradient>
    <clipPath id="clip0_58_254">
      <rect width="10" height="10" fill="white"/>
    </clipPath>
  </defs>
</svg>
