<svg width="10" height="10" viewBox="0 0 10 10" fill="none" xmlns="http://www.w3.org/2000/svg">
  <g clip-path="url(#clip0_52_44)">
    <path d="M8.6695 1.78772C8.63078 1.74901 8.58483 1.7183 8.53425 1.69735C8.48367 1.6764 8.42945 1.66561 8.37471 1.66561C8.31996 1.66561 8.26575 1.6764 8.21517 1.69735C8.16459 1.7183 8.11863 1.74901 8.07992 1.78772C8.0412 1.82643 8.01049 1.87239 7.98954 1.92297C7.96859 1.97355 7.95781 2.02776 7.95781 2.08251C7.95781 2.13726 7.96859 2.19147 7.98954 2.24205C8.01049 2.29263 8.0412 2.33859 8.07992 2.3773C8.77448 3.07351 9.16455 4.01679 9.16455 5.00022C9.16455 5.98365 8.77448 6.92693 8.07992 7.62314C8.00173 7.70132 7.95781 7.80736 7.95781 7.91793C7.95781 8.0285 8.00173 8.13454 8.07992 8.21272C8.1581 8.2909 8.26414 8.33483 8.37471 8.33483C8.48527 8.33483 8.59131 8.2909 8.6695 8.21272C9.52024 7.36004 9.99802 6.20472 9.99802 5.00022C9.99802 3.79572 9.52024 2.6404 8.6695 1.78772Z" fill="url(#paint0_linear_52_44)"/>
    <path d="M7.54175 3.03783C7.50304 2.99898 7.45705 2.96813 7.40642 2.94705C7.35578 2.92598 7.3015 2.91508 7.24665 2.91498C7.19181 2.91489 7.13748 2.92559 7.08677 2.94649C7.03607 2.96739 6.98997 2.99807 6.95112 3.03678C6.91227 3.0755 6.88143 3.12148 6.86035 3.17211C6.83927 3.22275 6.82837 3.27704 6.82828 3.33188C6.82818 3.38672 6.83889 3.44105 6.85979 3.49176C6.88069 3.54246 6.91137 3.58856 6.95008 3.62741C7.31373 3.99161 7.51797 4.48524 7.51797 4.99991C7.51797 5.51457 7.31373 6.0082 6.95008 6.3724C6.91137 6.41125 6.88069 6.45735 6.85979 6.50805C6.83889 6.55876 6.82818 6.61309 6.82828 6.66793C6.82837 6.72278 6.83927 6.77706 6.86035 6.8277C6.88143 6.87833 6.91227 6.92432 6.95112 6.96303C7.02958 7.04121 7.13589 7.08503 7.24665 7.08483C7.3015 7.08473 7.35578 7.07383 7.40642 7.05276C7.45705 7.03168 7.50304 7.00084 7.54175 6.96199C8.06147 6.44126 8.35336 5.73561 8.35336 4.99991C8.35336 4.2642 8.06147 3.55855 7.54175 3.03783Z" fill="url(#paint1_linear_52_44)"/>
    <path d="M5.75833 0.0834218C4.49138 0.32145 3.36445 1.03753 2.61083 2.08342H2.08333C1.53107 2.0843 1.00168 2.30408 0.611168 2.69459C0.220658 3.0851 0.000881508 3.61449 0 4.16676L0 5.83342C0.000881508 6.38569 0.220658 6.91508 0.611168 7.30559C1.00168 7.6961 1.53107 7.91587 2.08333 7.91676H2.61083C3.3646 8.96249 4.49146 9.67852 5.75833 9.91676C5.78318 9.92161 5.80844 9.92398 5.83375 9.92384C5.94426 9.92384 6.05024 9.87994 6.12838 9.8018C6.20652 9.72366 6.25042 9.61768 6.25042 9.50717V0.494255C6.25057 0.433061 6.23724 0.372584 6.21138 0.317123C6.18552 0.261661 6.14776 0.212577 6.10079 0.173358C6.05381 0.13414 5.99878 0.105749 5.93959 0.0902055C5.8804 0.0746615 5.81852 0.0723454 5.75833 0.0834218ZM5.41667 8.973C4.49766 8.68004 3.70745 8.07977 3.17875 7.27301C3.14097 7.21489 3.0893 7.16712 3.0284 7.13401C2.96751 7.10091 2.89931 7.08352 2.83 7.08342H2.08333C1.75181 7.08342 1.43387 6.95173 1.19945 6.71731C0.96503 6.48289 0.833333 6.16494 0.833333 5.83342V4.16676C0.833333 3.83523 0.96503 3.51729 1.19945 3.28287C1.43387 3.04845 1.75181 2.91676 2.08333 2.91676H2.83333C2.90257 2.91675 2.97071 2.89948 3.0316 2.86653C3.09249 2.83357 3.14421 2.78596 3.18208 2.72801C3.7097 1.92144 4.4987 1.3209 5.41667 1.02717V8.973Z" fill="url(#paint2_linear_52_44)"/>
  </g>
  <defs>
    <linearGradient id="paint0_linear_52_44" x1="8.97791" y1="1.66561" x2="8.97791" y2="8.33483" gradientUnits="userSpaceOnUse">
      <stop stop-color="#7A91DD"/>
      <stop offset="1" stop-color="#FBA580"/>
    </linearGradient>
    <linearGradient id="paint1_linear_52_44" x1="7.59082" y1="2.91498" x2="7.59082" y2="7.08483" gradientUnits="userSpaceOnUse">
      <stop stop-color="#7A91DD"/>
      <stop offset="1" stop-color="#FBA580"/>
    </linearGradient>
    <linearGradient id="paint2_linear_52_44" x1="3.12521" y1="0.0765395" x2="3.12521" y2="9.92384" gradientUnits="userSpaceOnUse">
      <stop stop-color="#7A91DD"/>
      <stop offset="1" stop-color="#FBA580"/>
    </linearGradient>
    <clipPath id="clip0_52_44">
      <rect width="10" height="10" fill="white"/>
    </clipPath>
  </defs>
</svg>
