<svg width="16" height="16" viewBox="0 0 16 16" fill="none" xmlns="http://www.w3.org/2000/svg">
<circle cx="8" cy="8" r="7.75" fill="url(#paint0_linear_58_255)" stroke="url(#paint1_linear_58_255)" stroke-width="0.5"/>
<g clip-path="url(#clip0_58_255)">
<path d="M11.6695 4.78772C11.6308 4.74901 11.5848 4.7183 11.5343 4.69735C11.4837 4.6764 11.4295 4.66561 11.3747 4.66561C11.32 4.66561 11.2658 4.6764 11.2152 4.69735C11.1646 4.7183 11.1186 4.74901 11.0799 4.78772C11.0412 4.82643 11.0105 4.87239 10.9896 4.92297C10.9686 4.97355 10.9578 5.02776 10.9578 5.08251C10.9578 5.13726 10.9686 5.19147 10.9896 5.24205C11.0105 5.29263 11.0412 5.33859 11.0799 5.3773C11.7745 6.07351 12.1646 7.01679 12.1646 8.00022C12.1646 8.98365 11.7745 9.92693 11.0799 10.6231C11.0017 10.7013 10.9578 10.8074 10.9578 10.9179C10.9578 11.0285 11.0017 11.1345 11.0799 11.2127C11.1581 11.2909 11.2642 11.3348 11.3747 11.3348C11.4853 11.3348 11.5913 11.2909 11.6695 11.2127C12.5203 10.36 12.998 9.20472 12.998 8.00022C12.998 6.79572 12.5203 5.6404 11.6695 4.78772Z" fill="white"/>
<path d="M10.5418 6.03783C10.5031 5.99898 10.4571 5.96813 10.4064 5.94705C10.3558 5.92598 10.3015 5.91508 10.2467 5.91498C10.1918 5.91489 10.1375 5.92559 10.0868 5.94649C10.0361 5.96739 9.99 5.99807 9.95115 6.03678C9.9123 6.0755 9.88146 6.12148 9.86038 6.17211C9.8393 6.22275 9.82841 6.27704 9.82831 6.33188C9.82821 6.38672 9.83892 6.44105 9.85982 6.49176C9.88072 6.54246 9.9114 6.58856 9.95011 6.62741C10.3138 6.99161 10.518 7.48524 10.518 7.99991C10.518 8.51457 10.3138 9.0082 9.95011 9.3724C9.9114 9.41125 9.88072 9.45735 9.85982 9.50805C9.83892 9.55876 9.82821 9.61309 9.82831 9.66793C9.82841 9.72278 9.8393 9.77706 9.86038 9.8277C9.88146 9.87833 9.9123 9.92432 9.95115 9.96303C10.0296 10.0412 10.1359 10.085 10.2467 10.0848C10.3015 10.0847 10.3558 10.0738 10.4064 10.0528C10.4571 10.0317 10.5031 10.0008 10.5418 9.96199C11.0615 9.44126 11.3534 8.73561 11.3534 7.99991C11.3534 7.2642 11.0615 6.55855 10.5418 6.03783Z" fill="white"/>
<path d="M8.75833 3.08342C7.49138 3.32145 6.36445 4.03753 5.61083 5.08342H5.08333C4.53107 5.0843 4.00168 5.30408 3.61117 5.69459C3.22066 6.0851 3.00088 6.61449 3 7.16676V8.83342C3.00088 9.38569 3.22066 9.91508 3.61117 10.3056C4.00168 10.6961 4.53107 10.9159 5.08333 10.9168H5.61083C6.3646 11.9625 7.49146 12.6785 8.75833 12.9168C8.78318 12.9216 8.80844 12.924 8.83375 12.9238C8.94426 12.9238 9.05024 12.8799 9.12838 12.8018C9.20652 12.7237 9.25042 12.6177 9.25042 12.5072V3.49426C9.25057 3.43306 9.23724 3.37258 9.21138 3.31712C9.18552 3.26166 9.14776 3.21258 9.10079 3.17336C9.05381 3.13414 8.99878 3.10575 8.93959 3.09021C8.8804 3.07466 8.81852 3.07235 8.75833 3.08342ZM8.41667 11.973C7.49766 11.68 6.70745 11.0798 6.17875 10.273C6.14097 10.2149 6.0893 10.1671 6.0284 10.134C5.96751 10.1009 5.89931 10.0835 5.83 10.0834H5.08333C4.75181 10.0834 4.43387 9.95173 4.19945 9.71731C3.96503 9.48289 3.83333 9.16494 3.83333 8.83342V7.16676C3.83333 6.83523 3.96503 6.51729 4.19945 6.28287C4.43387 6.04845 4.75181 5.91676 5.08333 5.91676H5.83333C5.90257 5.91675 5.97071 5.89948 6.0316 5.86653C6.09249 5.83357 6.14421 5.78596 6.18208 5.72801C6.7097 4.92144 7.4987 4.3209 8.41667 4.02717V11.973Z" fill="white"/>
</g>
<defs>
<linearGradient id="paint0_linear_58_255" x1="8" y1="-1.19209e-07" x2="4" y2="16" gradientUnits="userSpaceOnUse">
<stop stop-color="#FBA580"/>
<stop offset="1" stop-color="#7A91DD"/>
</linearGradient>
<linearGradient id="paint1_linear_58_255" x1="2.90909" y1="3.64062" x2="16" y2="13.0952" gradientUnits="userSpaceOnUse">
<stop stop-color="#7A91DD"/>
<stop offset="1" stop-color="#FBA580"/>
</linearGradient>
<clipPath id="clip0_58_255">
<rect width="10" height="10" fill="white" transform="translate(3 3)"/>
</clipPath>
</defs>
</svg>
