<svg width="16" height="16" viewBox="0 0 16 16" fill="none" xmlns="http://www.w3.org/2000/svg">
<circle cx="8" cy="8" r="7.75" stroke="url(#paint0_linear_60_397)" stroke-width="0.5"/>
<g clip-path="url(#clip0_60_397)">
<path d="M11.6695 4.78773C11.6307 4.74901 11.5848 4.7183 11.5342 4.69735C11.4836 4.6764 11.4294 4.66562 11.3747 4.66562C11.3199 4.66562 11.2657 4.6764 11.2151 4.69735C11.1645 4.7183 11.1186 4.74901 11.0799 4.78773C11.0412 4.82644 11.0104 4.8724 10.9895 4.92298C10.9685 4.97356 10.9578 5.02777 10.9578 5.08252C10.9578 5.13727 10.9685 5.19148 10.9895 5.24206C11.0104 5.29264 11.0412 5.3386 11.0799 5.37731C11.7744 6.07352 12.1645 7.0168 12.1645 8.00023C12.1645 8.98365 11.7744 9.92693 11.0799 10.6231C11.0017 10.7013 10.9578 10.8074 10.9578 10.9179C10.9578 11.0285 11.0017 11.1345 11.0799 11.2127C11.1581 11.2909 11.2641 11.3348 11.3747 11.3348C11.4852 11.3348 11.5913 11.2909 11.6695 11.2127C12.5202 10.36 12.998 9.20473 12.998 8.00023C12.998 6.79572 12.5202 5.6404 11.6695 4.78773Z" fill="url(#paint1_linear_60_397)"/>
<path d="M10.5418 6.03782C10.5031 5.99897 10.4571 5.96813 10.4065 5.94705C10.3559 5.92597 10.3016 5.91508 10.2467 5.91498C10.1919 5.91488 10.1376 5.92559 10.0869 5.94649C10.0362 5.96739 9.99006 5.99807 9.95121 6.03678C9.91236 6.07549 9.88152 6.12148 9.86044 6.17211C9.83936 6.22274 9.82847 6.27703 9.82837 6.33188C9.82827 6.38672 9.83898 6.44105 9.85988 6.49175C9.88078 6.54246 9.91146 6.58856 9.95017 6.6274C10.3138 6.99161 10.5181 7.48524 10.5181 7.9999C10.5181 8.51457 10.3138 9.0082 9.95017 9.3724C9.91146 9.41125 9.88078 9.45734 9.85988 9.50805C9.83898 9.55876 9.82827 9.61308 9.82837 9.66793C9.82847 9.72277 9.83936 9.77706 9.86044 9.82769C9.88152 9.87833 9.91236 9.92431 9.95121 9.96302C10.0297 10.0412 10.136 10.085 10.2467 10.0848C10.3016 10.0847 10.3559 10.0738 10.4065 10.0528C10.4571 10.0317 10.5031 10.0008 10.5418 9.96198C11.0616 9.44126 11.3534 8.73561 11.3534 7.9999C11.3534 7.2642 11.0616 6.55855 10.5418 6.03782Z" fill="url(#paint2_linear_60_397)"/>
<path d="M8.75833 3.08342C7.49138 3.32145 6.36445 4.03752 5.61083 5.08342H5.08333C4.53107 5.0843 4.00168 5.30408 3.61117 5.69459C3.22066 6.0851 3.00088 6.61449 3 7.16675V8.83342C3.00088 9.38568 3.22066 9.91508 3.61117 10.3056C4.00168 10.6961 4.53107 10.9159 5.08333 10.9168H5.61083C6.3646 11.9625 7.49146 12.6785 8.75833 12.9168C8.78318 12.9216 8.80844 12.924 8.83375 12.9238C8.94426 12.9238 9.05024 12.8799 9.12838 12.8018C9.20652 12.7237 9.25042 12.6177 9.25042 12.5072V3.49425C9.25057 3.43306 9.23724 3.37258 9.21138 3.31712C9.18552 3.26166 9.14776 3.21258 9.10079 3.17336C9.05381 3.13414 8.99878 3.10575 8.93959 3.0902C8.8804 3.07466 8.81852 3.07234 8.75833 3.08342ZM8.41667 11.973C7.49766 11.68 6.70745 11.0798 6.17875 10.273C6.14097 10.2149 6.0893 10.1671 6.0284 10.134C5.96751 10.1009 5.89931 10.0835 5.83 10.0834H5.08333C4.75181 10.0834 4.43387 9.95173 4.19945 9.7173C3.96503 9.48288 3.83333 9.16494 3.83333 8.83342V7.16675C3.83333 6.83523 3.96503 6.51729 4.19945 6.28287C4.43387 6.04845 4.75181 5.91675 5.08333 5.91675H5.83333C5.90257 5.91674 5.97071 5.89948 6.0316 5.86653C6.09249 5.83357 6.14421 5.78596 6.18208 5.728C6.7097 4.92144 7.4987 4.3209 8.41667 4.02717V11.973Z" fill="url(#paint3_linear_60_397)"/>
</g>
<defs>
<linearGradient id="paint0_linear_60_397" x1="2.90909" y1="3.64062" x2="16" y2="13.0952" gradientUnits="userSpaceOnUse">
<stop stop-color="#7A91DD"/>
<stop offset="1" stop-color="#FBA580"/>
</linearGradient>
<linearGradient id="paint1_linear_60_397" x1="11.9779" y1="4.66562" x2="11.9779" y2="11.3348" gradientUnits="userSpaceOnUse">
<stop stop-color="#7A91DD"/>
<stop offset="1" stop-color="#FBA580"/>
</linearGradient>
<linearGradient id="paint2_linear_60_397" x1="10.5909" y1="5.91498" x2="10.5909" y2="10.0848" gradientUnits="userSpaceOnUse">
<stop stop-color="#7A91DD"/>
<stop offset="1" stop-color="#FBA580"/>
</linearGradient>
<linearGradient id="paint3_linear_60_397" x1="6.12521" y1="3.07654" x2="6.12521" y2="12.9238" gradientUnits="userSpaceOnUse">
<stop stop-color="#7A91DD"/>
<stop offset="1" stop-color="#FBA580"/>
</linearGradient>
<clipPath id="clip0_60_397">
<rect width="10" height="10" fill="white" transform="translate(3 3)"/>
</clipPath>
</defs>
</svg>
