<svg width="16" height="16" viewBox="0 0 16 16" fill="none" xmlns="http://www.w3.org/2000/svg">
<circle cx="8" cy="8" r="7.75" stroke="url(#paint0_linear_80_481)" stroke-width="0.5"/>
<g clip-path="url(#clip0_80_481)">
<path d="M8.39793 12.984C8.28743 12.989 8.17949 12.9498 8.09788 12.8751C8.01626 12.8005 7.96764 12.6964 7.96273 12.5859C7.95781 12.4754 7.99699 12.3675 8.07165 12.2859C8.14632 12.2042 8.25034 12.1556 8.36085 12.1507C9.14937 12.0786 9.90102 11.7832 10.5277 11.2993C11.1545 10.8154 11.6303 10.1629 11.8996 9.41822C12.1688 8.67358 12.2203 7.86765 12.048 7.0948C11.8757 6.32195 11.4868 5.61419 10.9268 5.05442C10.3668 4.49465 9.65883 4.10604 8.8859 3.93411C8.11297 3.76219 7.30706 3.81406 6.56255 4.08365C5.81804 4.35325 5.16576 4.8294 4.68212 5.45635C4.19847 6.08329 3.90348 6.83507 3.83169 7.62363C3.82175 7.73369 3.76848 7.8353 3.68362 7.90609C3.59876 7.97689 3.48926 8.01107 3.37919 8.00113C3.26913 7.99118 3.16752 7.93792 3.09673 7.85306C3.02593 7.7682 2.99175 7.65869 3.00169 7.54863C3.1179 6.26667 3.72403 5.07892 4.69391 4.23261C5.66379 3.38631 6.9227 2.94665 8.20858 3.00517C9.49446 3.06369 10.7082 3.61588 11.5972 4.54678C12.4862 5.47768 12.982 6.71558 12.9813 8.00279C12.9876 9.2521 12.5235 10.458 11.6812 11.3807C10.8389 12.3034 9.68015 12.8752 8.43543 12.9824C8.42293 12.9836 8.41002 12.984 8.39793 12.984Z" fill="url(#paint1_linear_80_481)"/>
<path d="M7.30074 6C7.22098 6 7.14448 6.03165 7.08808 6.08798C7.03168 6.14431 7 6.22071 7 6.30037V7.80221C7.00002 7.88187 7.03171 7.95826 7.08812 8.01458L7.99033 8.91568C8.04705 8.9704 8.12302 9.00067 8.20187 8.99999C8.28073 8.9993 8.35616 8.96771 8.41192 8.91202C8.46768 8.85633 8.4993 8.781 8.49999 8.70224C8.50067 8.62348 8.47036 8.54761 8.41558 8.49096L7.60148 7.67786V6.30037C7.60148 6.22071 7.56979 6.14431 7.51339 6.08798C7.45699 6.03165 7.3805 6 7.30074 6Z" fill="url(#paint2_linear_80_481)"/>
<path d="M3 9.57769V9.0498H4.01299V11.4734H3.36204V9.57769H3Z" fill="url(#paint3_linear_80_481)"/>
<path d="M4.72236 11.5C4.61265 11.5 4.52244 11.4712 4.45174 11.4137C4.38348 11.3539 4.34935 11.2809 4.34935 11.1946C4.34935 11.106 4.38348 11.0319 4.45174 10.9721C4.52244 10.9124 4.61265 10.8825 4.72236 10.8825C4.82963 10.8825 4.9174 10.9124 4.98566 10.9721C5.05637 11.0319 5.09172 11.106 5.09172 11.1946C5.09172 11.2809 5.05637 11.3539 4.98566 11.4137C4.9174 11.4712 4.82963 11.5 4.72236 11.5Z" fill="url(#paint4_linear_80_481)"/>
<path d="M5.32659 10.2284C5.32659 9.84772 5.40705 9.54781 5.56796 9.32869C5.7313 9.10956 5.99339 9 6.35421 9C6.71503 9 6.9759 9.10956 7.13681 9.32869C7.30015 9.54781 7.38183 9.84772 7.38183 10.2284C7.38183 10.6135 7.30015 10.9157 7.13681 11.1348C6.9759 11.3539 6.71503 11.4635 6.35421 11.4635C5.99339 11.4635 5.7313 11.3539 5.56796 11.1348C5.40705 10.9157 5.32659 10.6135 5.32659 10.2284ZM6.76745 10.2284C6.76745 10.0049 6.74063 9.83333 6.687 9.71381C6.63336 9.59208 6.52243 9.53121 6.35421 9.53121C6.18599 9.53121 6.07506 9.59208 6.02142 9.71381C5.96779 9.83333 5.94097 10.0049 5.94097 10.2284C5.94097 10.3789 5.95072 10.504 5.97023 10.6036C5.98973 10.701 6.02874 10.7807 6.08725 10.8426C6.1482 10.9024 6.23719 10.9323 6.35421 10.9323C6.47123 10.9323 6.559 10.9024 6.61751 10.8426C6.67846 10.7807 6.71869 10.701 6.73819 10.6036C6.7577 10.504 6.76745 10.3789 6.76745 10.2284Z" fill="url(#paint5_linear_80_481)"/>
<path d="M8.49847 11.4734L8.21897 11.1059L7.98388 11.4734H7.50063L7.98126 10.7976L7.48757 10.1502H7.9891L8.2686 10.5154L8.50369 10.1502H8.98694L8.49847 10.8165L9 11.4734H8.49847Z" fill="url(#paint6_linear_80_481)"/>
</g>
<defs>
<linearGradient id="paint0_linear_80_481" x1="2.90909" y1="3.64062" x2="16" y2="13.0952" gradientUnits="userSpaceOnUse">
<stop stop-color="#7A91DD"/>
<stop offset="1" stop-color="#FBA580"/>
</linearGradient>
<linearGradient id="paint1_linear_80_481" x1="7.99066" y1="3" x2="7.99066" y2="12.9845" gradientUnits="userSpaceOnUse">
<stop stop-color="#DDA096"/>
<stop offset="1" stop-color="#7A91DD"/>
</linearGradient>
<linearGradient id="paint2_linear_80_481" x1="7.75" y1="6" x2="7.75" y2="9" gradientUnits="userSpaceOnUse">
<stop stop-color="#DDA096"/>
<stop offset="1" stop-color="#7A91DD"/>
</linearGradient>
<linearGradient id="paint3_linear_80_481" x1="6" y1="9" x2="6" y2="11.5" gradientUnits="userSpaceOnUse">
<stop stop-color="#DDA096"/>
<stop offset="1" stop-color="#7A91DD"/>
</linearGradient>
<linearGradient id="paint4_linear_80_481" x1="6" y1="9" x2="6" y2="11.5" gradientUnits="userSpaceOnUse">
<stop stop-color="#DDA096"/>
<stop offset="1" stop-color="#7A91DD"/>
</linearGradient>
<linearGradient id="paint5_linear_80_481" x1="6" y1="9" x2="6" y2="11.5" gradientUnits="userSpaceOnUse">
<stop stop-color="#DDA096"/>
<stop offset="1" stop-color="#7A91DD"/>
</linearGradient>
<linearGradient id="paint6_linear_80_481" x1="6" y1="9" x2="6" y2="11.5" gradientUnits="userSpaceOnUse">
<stop stop-color="#DDA096"/>
<stop offset="1" stop-color="#7A91DD"/>
</linearGradient>
<clipPath id="clip0_80_481">
<rect width="10" height="10" fill="white" transform="translate(3 3)"/>
</clipPath>
</defs>
</svg>
