<svg width="16" height="16" viewBox="0 0 16 16" fill="none" xmlns="http://www.w3.org/2000/svg">
<circle cx="8" cy="8" r="7.75" fill="url(#paint0_linear_80_516)" stroke="url(#paint1_linear_80_516)" stroke-width="0.5"/>
<g clip-path="url(#clip0_80_516)">
<path d="M8.39793 12.984C8.28743 12.989 8.17949 12.9498 8.09788 12.8751C8.01626 12.8005 7.96764 12.6964 7.96273 12.5859C7.95781 12.4754 7.99699 12.3675 8.07165 12.2859C8.14632 12.2042 8.25034 12.1556 8.36085 12.1507C9.14937 12.0786 9.90102 11.7832 10.5277 11.2993C11.1545 10.8154 11.6303 10.1629 11.8996 9.41822C12.1688 8.67358 12.2203 7.86765 12.048 7.0948C11.8757 6.32195 11.4868 5.61419 10.9268 5.05442C10.3668 4.49465 9.65883 4.10604 8.8859 3.93411C8.11297 3.76219 7.30706 3.81406 6.56255 4.08365C5.81804 4.35325 5.16576 4.8294 4.68212 5.45635C4.19847 6.08329 3.90348 6.83507 3.83169 7.62363C3.82175 7.73369 3.76848 7.8353 3.68362 7.90609C3.59876 7.97689 3.48926 8.01107 3.37919 8.00113C3.26913 7.99118 3.16752 7.93792 3.09673 7.85306C3.02593 7.7682 2.99175 7.65869 3.00169 7.54863C3.1179 6.26667 3.72403 5.07892 4.69391 4.23261C5.66379 3.38631 6.9227 2.94665 8.20858 3.00517C9.49446 3.06369 10.7082 3.61588 11.5972 4.54678C12.4862 5.47768 12.982 6.71558 12.9813 8.00279C12.9876 9.2521 12.5235 10.458 11.6812 11.3807C10.8389 12.3034 9.68015 12.8752 8.43543 12.9824C8.42293 12.9836 8.41002 12.984 8.39793 12.984Z" fill="white"/>
<path d="M7.30074 6C7.22098 6 7.14448 6.03165 7.08808 6.08798C7.03168 6.14431 7 6.22071 7 6.30037V7.80221C7.00002 7.88187 7.03171 7.95826 7.08812 8.01458L7.99033 8.91568C8.04705 8.9704 8.12302 9.00067 8.20187 8.99999C8.28073 8.9993 8.35616 8.96771 8.41192 8.91202C8.46768 8.85633 8.4993 8.781 8.49999 8.70224C8.50067 8.62348 8.47036 8.54761 8.41558 8.49096L7.60148 7.67786V6.30037C7.60148 6.22071 7.56979 6.14431 7.51339 6.08798C7.45699 6.03165 7.3805 6 7.30074 6Z" fill="white"/>
<path d="M4.80831 10.2466C4.80831 10.4408 4.7914 10.6147 4.75758 10.7683C4.72617 10.9219 4.67423 11.0528 4.60175 11.1612C4.53169 11.2674 4.43868 11.3487 4.32271 11.4051C4.20917 11.4616 4.06904 11.4898 3.90234 11.4898C3.69458 11.4898 3.52425 11.4402 3.39138 11.3408C3.2585 11.2414 3.15945 11.0991 3.09422 10.914C3.03141 10.7288 3 10.5063 3 10.2466C3 9.98464 3.02899 9.76107 3.08697 9.57588C3.14495 9.3907 3.24038 9.24842 3.37326 9.14905C3.50613 9.04968 3.6825 9 3.90234 9C4.11011 9 4.28043 9.04968 4.41331 9.14905C4.54619 9.24616 4.64524 9.38844 4.71047 9.57588C4.7757 9.76107 4.80831 9.98464 4.80831 10.2466ZM3.54358 10.2466C3.54358 10.4295 3.55445 10.5831 3.5762 10.7073C3.59794 10.8293 3.63418 10.9219 3.68491 10.9851C3.73806 11.0461 3.81054 11.0766 3.90234 11.0766C3.99415 11.0766 4.06542 11.0461 4.11615 10.9851C4.1693 10.9241 4.20675 10.8327 4.22849 10.7107C4.25265 10.5865 4.26473 10.4318 4.26473 10.2466C4.26473 10.0614 4.25265 9.90786 4.22849 9.78591C4.20675 9.6617 4.1693 9.56911 4.11615 9.50813C4.06542 9.4449 3.99415 9.41328 3.90234 9.41328C3.81054 9.41328 3.73806 9.4449 3.68491 9.50813C3.63418 9.56911 3.59794 9.6617 3.5762 9.78591C3.55445 9.90786 3.54358 10.0614 3.54358 10.2466Z" fill="white"/>
<path d="M5.00496 11.2188C5.00496 11.115 5.03516 11.0427 5.09556 11.002C5.15596 10.9591 5.22964 10.9377 5.31662 10.9377C5.40117 10.9377 5.47365 10.9591 5.53405 11.002C5.59445 11.0427 5.62465 11.115 5.62465 11.2188C5.62465 11.3182 5.59445 11.3905 5.53405 11.4356C5.47365 11.4785 5.40117 11.5 5.31662 11.5C5.22964 11.5 5.15596 11.4785 5.09556 11.4356C5.03516 11.3905 5.00496 11.3182 5.00496 11.2188Z" fill="white"/>
<path d="M6.77398 9.91125C6.93101 9.91125 7.07114 9.93948 7.19435 9.99593C7.31756 10.0524 7.4142 10.1348 7.48426 10.2432C7.55674 10.3516 7.59297 10.486 7.59297 10.6463C7.59297 10.8202 7.55432 10.9704 7.47701 11.0969C7.3997 11.2234 7.28374 11.3205 7.12912 11.3882C6.97692 11.456 6.78727 11.4898 6.56017 11.4898C6.42488 11.4898 6.29684 11.4785 6.17604 11.456C6.05766 11.4334 5.95378 11.4006 5.86439 11.3577V10.9173C5.95378 10.9603 6.06128 10.9975 6.18691 11.0291C6.31254 11.0585 6.43092 11.0732 6.54205 11.0732C6.65077 11.0732 6.74136 11.0596 6.81384 11.0325C6.88874 11.0054 6.94551 10.9636 6.98416 10.9072C7.02282 10.8507 7.04215 10.7785 7.04215 10.6904C7.04215 10.5707 6.99987 10.4804 6.91531 10.4194C6.83075 10.3561 6.70029 10.3245 6.52393 10.3245C6.45629 10.3245 6.38623 10.3313 6.31375 10.3449C6.24127 10.3561 6.18087 10.3674 6.13255 10.3787L5.91512 10.2703L6.01297 9.03726H7.41541V9.47087H6.49132L6.44421 9.94512C6.48528 9.93835 6.52876 9.93157 6.57467 9.9248C6.62299 9.91576 6.68942 9.91125 6.77398 9.91125Z" fill="white"/>
<path d="M8.0747 10.8259L7.6495 10.2229H8.05779L8.31388 10.6159L8.57238 10.2229H8.98067L8.55064 10.8259L9 11.456H8.59171L8.31388 11.0336L8.03605 11.456H7.62776L8.0747 10.8259Z" fill="white"/>
</g>
<defs>
<linearGradient id="paint0_linear_80_516" x1="8" y1="0" x2="8" y2="16" gradientUnits="userSpaceOnUse">
<stop stop-color="#7A91DD"/>
<stop offset="1" stop-color="#FBA580"/>
</linearGradient>
<linearGradient id="paint1_linear_80_516" x1="2.90909" y1="3.64062" x2="16" y2="13.0952" gradientUnits="userSpaceOnUse">
<stop stop-color="#7A91DD"/>
<stop offset="1" stop-color="#FBA580"/>
</linearGradient>
<clipPath id="clip0_80_516">
<rect width="10" height="10" fill="white" transform="translate(3 3)"/>
</clipPath>
</defs>
</svg>
